<svg id="Layer_1" data-name="Layer 1" xmlns="http://www.w3.org/2000/svg" xmlns:xlink="http://www.w3.org/1999/xlink" viewBox="0 0 1920 1080"><defs><style>.cls-1{fill:#3490de;}.cls-2{fill:url(#linear-gradient);}.cls-3,.cls-5,.cls-6,.cls-8,.cls-9{opacity:0.54;}.cls-3{fill:url(#Orchid);}.cls-4,.cls-7{fill:#00dbff;}.cls-4{opacity:0.56;}.cls-5{fill:url(#linear-gradient-2);}.cls-6{fill:url(#linear-gradient-3);}.cls-7{opacity:0.18;}.cls-8{fill:url(#linear-gradient-4);}.cls-9{fill:url(#linear-gradient-5);}.cls-10{fill:#e6e6e6;opacity:0.64;}</style><linearGradient id="linear-gradient" x1="1355.31" y1="516.52" x2="1898.38" y2="71.8" gradientUnits="userSpaceOnUse"><stop offset="0.27" stop-color="#3490de"/><stop offset="0.41" stop-color="#3997de"/><stop offset="0.6" stop-color="#46aade"/><stop offset="0.83" stop-color="#5bcadd"/><stop offset="1" stop-color="#6fe7dd"/></linearGradient><linearGradient id="Orchid" x1="1494" y1="306.74" x2="1494" y2="-75.16" gradientUnits="userSpaceOnUse"><stop offset="0" stop-color="#ff7bac"/><stop offset="0.22" stop-color="#ff7bac" stop-opacity="0.76"/><stop offset="0.6" stop-color="#ff7bac" stop-opacity="0.36"/><stop offset="0.87" stop-color="#ff7bac" stop-opacity="0.1"/><stop offset="1" stop-color="#ff7bac" stop-opacity="0"/></linearGradient><linearGradient id="linear-gradient-2" x1="1493.67" y1="327" x2="1602.67" y2="327" gradientUnits="userSpaceOnUse"><stop offset="0" stop-color="#ff7bac"/><stop offset="0.04" stop-color="#f67cae"/><stop offset="0.51" stop-color="#8f87c8"/><stop offset="0.85" stop-color="#4d8dd8"/><stop offset="1" stop-color="#3490de"/></linearGradient><linearGradient id="linear-gradient-3" x1="1493.67" y1="359" x2="1602.67" y2="359" xlink:href="#linear-gradient-2"/><linearGradient id="linear-gradient-4" x1="-31" y1="489" x2="78" y2="489" xlink:href="#linear-gradient-2"/><linearGradient id="linear-gradient-5" x1="-31" y1="521" x2="78" y2="521" xlink:href="#linear-gradient-2"/></defs><title>header_bg</title><rect class="cls-1" width="1920" height="1080"/><path class="cls-2" d="M1920,683S1289.21,646,1218.07,0H1920Z"/><path class="cls-3" d="M1064,0s82,431,860,202V0Z"/><rect class="cls-4" x="1463.67" y="282" width="169" height="705"/><rect class="cls-5" x="1493.67" y="319" width="109" height="16"/><rect class="cls-6" x="1493.67" y="351" width="109" height="16"/><rect class="cls-7" x="-59" y="444" width="169" height="705"/><rect class="cls-8" x="-31" y="481" width="109" height="16"/><rect class="cls-9" x="-31" y="513" width="109" height="16"/><path class="cls-10" d="M1404,158.16s-179.28,18.07-208.46-34.74c0,0,2.78-33.35,75-27.8,0,0,37.53,38.92,77.83,26.41S1404,158.16,1404,158.16Z"/></svg>